<?xml version="1.0" encoding="UTF-8"?>
<svg id="Layer_2" data-name="Layer 2" xmlns="http://www.w3.org/2000/svg" viewBox="0 0 143.55 100.25">
  <defs>
    <style>
      .cls-1, .cls-2 {
        fill: #ffb10a;
      }

      .cls-1, .cls-3 {
        font-family: Poppins-Bold, Poppins;
        font-size: 20.49px;
        font-weight: 700;
      }

      .cls-4, .cls-3 {
        fill: #543429;
      }

      .cls-5 {
        isolation: isolate;
      }
    </style>
  </defs>
  <g id="Layer_2-2" data-name="Layer 2">
    <g id="OBJECT">
      <g>
        <g class="cls-5">
          <text class="cls-3" transform="translate(0 87.83)"><tspan x="0" y="0">E-</tspan></text>
          <text class="cls-1" transform="translate(23.07 87.83)"><tspan x="0" y="0">COMMERCE</tspan></text>
        </g>
        <g>
          <path class="cls-4" d="M46.13,2.08l6.38,17.83c.78,2.19,2.88,3.67,5.21,3.67h45.52c.66,0,1.14.64.94,1.28l-.9,2.96c-.13.41-.51.7-.94.7h-38.75c-1.22,0-2.44.36-3.42,1.09-2,1.51-2.71,4.09-1.9,6.32l5.16,14.33c.79,2.19,2.88,3.66,5.2,3.66h1.25c.65-2.61,3.01-4.54,5.81-4.54s5.16,1.93,5.81,4.53h9.08c.66-2.6,3.01-4.53,5.81-4.53s5.15,1.92,5.81,4.5h2.44c.68,0,1.29-.45,1.5-1.1l2.2-7.03c.32-1.01-.44-2.04-1.5-2.04l-34.27.04c-.41,0-.79-.26-.93-.65l-1.11-3.08c-.23-.64.25-1.32.93-1.32h35.02c2.45,0,4.57-1.57,5.29-3.91l4.35-14.22c.51-1.67.2-3.5-.84-4.91-1.04-1.4-2.7-2.24-4.45-2.24h-48.34c-.91,0-1.72-.57-2.03-1.43l-3.92-10.95c-.23-.62-.82-1.04-1.48-1.04h-7.46c-1.09,0-1.85,1.08-1.48,2.1v-.02Z"/>
          <path class="cls-2" d="M91.87,55.37c0,2.51,2.03,4.54,4.54,4.54s4.54-2.03,4.54-4.54-2.03-4.54-4.54-4.54-4.54,2.03-4.54,4.54Z"/>
          <circle class="cls-2" cx="75.71" cy="55.37" r="4.54"/>
          <path class="cls-2" d="M48.8,59.93h17.89c.95,0,1.72-.77,1.72-1.72h0c0-.95-.77-1.72-1.72-1.72h-17.89c-.95,0-1.72.77-1.72,1.72h0c0,.95.77,1.72,1.72,1.72Z"/>
          <path class="cls-2" d="M36.38,59.93h6.56c.95,0,1.72-.77,1.72-1.72h0c0-.95-.77-1.72-1.72-1.72h-6.56c-.95,0-1.72.77-1.72,1.72h0c0,.95.77,1.72,1.72,1.72Z"/>
          <path class="cls-2" d="M29.9,59.93h.62c.95,0,1.72-.77,1.72-1.72h0c0-.95-.77-1.72-1.72-1.72h-.62c-.95,0-1.72.77-1.72,1.72h0c0,.95.77,1.72,1.72,1.72Z"/>
          <path class="cls-2" d="M55.58,54.29h4.36c.95,0,1.72-.77,1.72-1.72h0c0-.95-.77-1.72-1.72-1.72h-4.36c-.95,0-1.72.77-1.72,1.72h0c0,.95.77,1.72,1.72,1.72Z"/>
          <path class="cls-2" d="M36.68,54.29h13.02c.95,0,1.72-.77,1.72-1.72h0c0-.95-.77-1.72-1.72-1.72h-13.02c-.95,0-1.72.77-1.72,1.72h0c0,.95.77,1.72,1.72,1.72Z"/>
        </g>
      </g>
    </g>
  </g>
</svg>